<svg width="24" height="16" viewBox="0 0 24 16" fill="none" xmlns="http://www.w3.org/2000/svg">
<path d="M4.91617 3.43199C8.82632 -0.477332 15.1737 -0.477332 19.0838 3.43199L19.5546 3.90609C19.752 4.10039 19.752 4.41904 19.5546 4.61334L17.945 6.22215C17.8463 6.32319 17.6868 6.32319 17.5881 6.22215L16.9427 5.57707C14.2094 2.84909 9.79057 2.84909 7.05726 5.57707L6.36634 6.26878C6.26764 6.36982 6.10819 6.36982 6.00949 6.26878L4.39987 4.65997C4.20247 4.46567 4.20247 4.14702 4.39987 3.95272L4.91617 3.43199ZM22.417 6.75842L23.8519 8.18847C24.0494 8.38277 24.0494 8.70142 23.8519 8.89573L17.3907 15.3543C17.1933 15.5486 16.8744 15.5486 16.6846 15.3543L12.0987 10.7688C12.0531 10.7222 11.9696 10.7222 11.9241 10.7688L7.33818 15.3543C7.14078 15.5486 6.82189 15.5486 6.63208 15.3543L0.148054 8.89573C-0.0493515 8.70142 -0.0493515 8.38277 0.148054 8.18847L1.58304 6.75842C1.78045 6.56412 2.09934 6.56412 2.28915 6.75842L6.87504 11.3439C6.9206 11.3905 7.00411 11.3905 7.04967 11.3439L11.6356 6.75842C11.833 6.56412 12.1519 6.56412 12.3417 6.75842L16.9276 11.3439C16.9731 11.3905 17.0566 11.3905 17.1022 11.3439L21.6881 6.75842C21.9007 6.56412 22.2196 6.56412 22.417 6.75842Z" fill="white"/>
</svg>
