<svg width="173" height="27" viewBox="0 0 173 27" fill="none" xmlns="http://www.w3.org/2000/svg">
<path d="M42.2568 20.1816L40.7307 5.54828H44.5145L45.2462 14.7673L49.4689 5.54828H52.4583L53.4618 14.7673L57.3919 5.54828H61.4892L54.8415 20.1816H50.8905L49.9916 11.9242L46.2078 20.1816H42.2568ZM68.3223 20.1816L68.0923 18.0703H63.2215L62.2181 20.1816H58.0998L65.5001 5.54828H70.0574L72.3151 20.1816H68.3223ZM64.7685 14.8509H67.737L67.1934 9.79196L64.7685 14.8509ZM77.7482 16.5651H82.7863L82.1591 20.1816H73.3791L75.9504 5.54828H79.6924L77.7482 16.5651ZM87.8944 16.5651H92.9325L92.3053 20.1816H83.5253L86.0966 5.54828H89.8385L87.8944 16.5651ZM104.918 9.03938H99.3785L99.0022 11.0881H104.061L103.434 14.5164H98.4169L98.0406 16.6696H103.685L103.079 20.1816H93.6715L96.2428 5.54828H105.545L104.918 9.03938ZM117.464 5.54828L116.816 9.16481H113.221L111.277 20.1816H107.535L109.479 9.16481H105.862L106.489 5.54828H117.464ZM126.682 5.54828H130.403L127.832 20.1816H124.11L125.093 14.5583H120.975L119.992 20.1816H116.25L118.822 5.54828H122.564L121.602 10.9626H125.72L126.682 5.54828ZM139.121 20.1816L138.891 18.0703H134.02L133.017 20.1816H128.899L136.299 5.54828H140.856L143.114 20.1816H139.121ZM135.567 14.8509H138.536L137.992 9.79196L135.567 14.8509ZM150.82 20.4952C148.576 20.4952 146.834 19.7426 145.594 18.2375C144.367 16.7323 143.935 14.8718 144.297 12.6559C144.646 10.4958 145.628 8.71884 147.245 7.32519C148.876 5.93154 150.771 5.23471 152.931 5.23471C154.367 5.23471 155.586 5.54828 156.59 6.17543C157.607 6.78863 158.38 7.63876 158.91 8.72581L155.482 10.5445C154.924 9.44354 153.956 8.89305 152.576 8.89305C151.433 8.89305 150.437 9.26237 149.586 10.001C148.75 10.7257 148.228 11.6804 148.019 12.865C147.823 14.0217 148.005 14.9763 148.562 15.7289C149.12 16.4676 149.956 16.8369 151.071 16.8369C152.478 16.8369 153.621 16.2515 154.499 15.0809L157.572 17.0668C156.792 18.1539 155.809 18.997 154.624 19.5963C153.454 20.1956 152.186 20.4952 150.82 20.4952ZM172.979 5.54828L166.749 12.8232L170.47 20.1816H166.603L163.258 13.513L162.088 20.1816H158.346L160.917 5.54828H164.659L163.614 11.4852L168.61 5.54828H172.979Z" fill="white"/>
<path d="M33.8015 1.40144H26.1204C26.0999 1.40063 26.0797 1.40673 26.063 1.41876C26.0464 1.43079 26.0342 1.44805 26.0286 1.46779L23.2981 11.1291L23.2266 11.3792L22.6856 13.288L22.1753 15.1202L21.5118 17.4322L19.1641 25.5981L27.9935 22.1276C28.0197 22.1131 28.0396 22.0895 28.0496 22.0613L33.8934 1.52393C33.8973 1.50968 33.8978 1.49473 33.8951 1.48022C33.8923 1.46571 33.8863 1.45203 33.8774 1.44021C33.8685 1.4284 33.8571 1.41876 33.8439 1.41204C33.8308 1.40532 33.8163 1.40169 33.8015 1.40144V1.40144Z" fill="white"/>
<path d="M21.8028 12.3081L21.4608 13.5074L18.7508 22.9442L18.516 23.7659L18.2302 24.7407L14.2544 13.9515L12.7947 9.97568V9.95016L12.4477 9.05702L12.2027 8.40374L12.1006 8.11793L11.5392 6.58682C11.5332 6.57889 11.5296 6.56937 11.5289 6.55944C11.5282 6.5495 11.5305 6.53958 11.5354 6.5309C11.5402 6.52222 11.5476 6.51515 11.5564 6.51058C11.5653 6.50601 11.5753 6.50412 11.5852 6.50516H19.3938C19.4134 6.50548 19.4325 6.51143 19.4488 6.52229C19.4651 6.53315 19.4779 6.54846 19.4857 6.5664L21.8028 12.3081Z" fill="white"/>
<path d="M15.4131 20.2852L11.616 9.96552L11.3149 9.14893L10.7535 11.0985L10.1155 13.3187L9.60512 15.1611L7.14514 23.7353L6.63477 25.6033L15.4591 22.1379C15.4738 22.1318 15.4868 22.1221 15.4966 22.1096C15.5064 22.097 15.5129 22.0822 15.5152 22.0664L15.75 21.0457L15.4131 20.2852Z" fill="white"/>
<path d="M8.97719 13.2625L9.24259 12.3336L8.52807 10.5422C8.52173 10.5243 8.50997 10.5087 8.49443 10.4978C8.47889 10.4868 8.46033 10.4809 8.4413 10.481H0.0916346C0.0765231 10.4825 0.0619489 10.4874 0.048975 10.4953C0.0360011 10.5032 0.0249546 10.5139 0.0166412 10.5266C0.00832784 10.5394 0.00295723 10.5538 0.000921072 10.5688C-0.00111508 10.5839 0.000234564 10.5992 0.00487158 10.6137L5.65978 24.802L5.9558 23.7812L8.72201 14.1607L8.97209 13.2931L8.97719 13.2625Z" fill="white"/>
</svg>
