<svg width="34" height="25" viewBox="0 0 34 25" fill="none" xmlns="http://www.w3.org/2000/svg">
<path d="M33.1307 0.880309H25.7722C25.7525 0.879539 25.7332 0.885381 25.7172 0.896903C25.7012 0.908425 25.6896 0.924962 25.6842 0.943871L23.0683 10.1995L22.9999 10.4391L22.4816 12.2677L21.9927 14.023L21.357 16.2379L19.1079 24.061L27.5666 20.7362C27.5917 20.7223 27.6108 20.6997 27.6204 20.6726L33.2187 0.997655C33.2225 0.984004 33.223 0.969683 33.2204 0.955783C33.2177 0.941884 33.2119 0.928774 33.2034 0.917454C33.195 0.906134 33.184 0.896903 33.1714 0.890466C33.1588 0.884028 33.1449 0.880554 33.1307 0.880309Z" fill="white"/>
<path d="M21.636 11.329L21.3084 12.478L18.7122 21.5185L18.4873 22.3057L18.2135 23.2396L14.4046 12.9034L13.0062 9.09454V9.07009L12.6738 8.21445L12.4391 7.5886L12.3413 7.3148L11.8034 5.84797C11.7977 5.84038 11.7942 5.83126 11.7936 5.82174C11.7929 5.81222 11.7951 5.80272 11.7997 5.7944C11.8044 5.78608 11.8114 5.77932 11.8199 5.77494C11.8284 5.77056 11.838 5.76875 11.8474 5.76974H19.3282C19.347 5.77005 19.3653 5.77575 19.3809 5.78615C19.3965 5.79656 19.4087 5.81123 19.4162 5.82842L21.636 11.329Z" fill="white"/>
<path d="M15.5162 18.9711L11.8785 9.08472L11.59 8.30241L11.0522 10.1702L10.441 12.2971L9.95208 14.0621L7.59539 22.2763L7.10645 24.0659L15.5602 20.746C15.5744 20.7402 15.5868 20.7309 15.5962 20.7188C15.6056 20.7068 15.6118 20.6926 15.614 20.6775L15.8389 19.6996L15.5162 18.9711Z" fill="white"/>
<path d="M9.34878 12.2433L9.60303 11.3534L8.91851 9.63723C8.91244 9.62005 8.90118 9.60517 8.88629 9.59466C8.8714 9.58415 8.85362 9.57853 8.83539 9.57856H0.836322C0.821845 9.58004 0.807883 9.58474 0.795454 9.59232C0.783025 9.59989 0.772442 9.61014 0.764478 9.62232C0.756513 9.6345 0.751368 9.6483 0.749418 9.66272C0.747467 9.67715 0.74876 9.69182 0.753202 9.70568L6.17067 23.2982L6.45425 22.3204L9.10431 13.1038L9.34389 12.2726L9.34878 12.2433Z" fill="white"/>
</svg>
