<svg width="173" height="26" viewBox="0 0 173 26" fill="none" xmlns="http://www.w3.org/2000/svg">
<path d="M42.2568 20L40.7307 5.36664H44.5145L45.2462 14.5857L49.4689 5.36664H52.4583L53.4618 14.5857L57.3919 5.36664H61.4892L54.8415 20H50.8905L49.9916 11.7426L46.2078 20H42.2568ZM68.3223 20L68.0923 17.8886H63.2215L62.2181 20H58.0998L65.5001 5.36664H70.0574L72.3151 20H68.3223ZM64.7685 14.6693H67.737L67.1934 9.61032L64.7685 14.6693ZM77.7482 16.3835H82.7863L82.1591 20H73.3791L75.9504 5.36664H79.6924L77.7482 16.3835ZM87.8944 16.3835H92.9325L92.3053 20H83.5253L86.0966 5.36664H89.8385L87.8944 16.3835ZM104.918 8.85774H99.3785L99.0022 10.9064H104.061L103.434 14.3348H98.4169L98.0406 16.488H103.685L103.079 20H93.6715L96.2428 5.36664H105.545L104.918 8.85774ZM117.464 5.36664L116.816 8.98317H113.221L111.277 20H107.535L109.479 8.98317H105.862L106.489 5.36664H117.464ZM126.682 5.36664H130.403L127.832 20H124.11L125.093 14.3766H120.975L119.992 20H116.25L118.822 5.36664H122.564L121.602 10.781H125.72L126.682 5.36664ZM139.121 20L138.891 17.8886H134.02L133.017 20H128.899L136.299 5.36664H140.856L143.114 20H139.121ZM135.567 14.6693H138.536L137.992 9.61032L135.567 14.6693ZM150.82 20.3136C148.576 20.3136 146.834 19.561 145.594 18.0559C144.367 16.5507 143.935 14.6902 144.297 12.4743C144.646 10.3141 145.628 8.5372 147.245 7.14355C148.876 5.7499 150.771 5.05307 152.931 5.05307C154.367 5.05307 155.586 5.36664 156.59 5.99379C157.607 6.60699 158.38 7.45712 158.91 8.54417L155.482 10.3629C154.924 9.2619 153.956 8.71141 152.576 8.71141C151.433 8.71141 150.437 9.08073 149.586 9.81936C148.75 10.5441 148.228 11.4987 148.019 12.6833C147.823 13.8401 148.005 14.7947 148.562 15.5473C149.12 16.2859 149.956 16.6552 151.071 16.6552C152.478 16.6552 153.621 16.0699 154.499 14.8992L157.572 16.8852C156.792 17.9722 155.809 18.8154 154.624 19.4147C153.454 20.0139 152.186 20.3136 150.82 20.3136ZM172.979 5.36664L166.749 12.6415L170.47 20H166.603L163.258 13.3314L162.088 20H158.346L160.917 5.36664H164.659L163.614 11.3036L168.61 5.36664H172.979Z" fill="white"/>
<path d="M33.8015 1.2198H26.1204C26.0999 1.21899 26.0797 1.22509 26.063 1.23712C26.0464 1.24915 26.0342 1.26641 26.0286 1.28615L23.2981 10.9475L23.2266 11.1975L22.6856 13.1063L22.1753 14.9386L21.5118 17.2505L19.1641 25.4165L27.9935 21.946C28.0197 21.9315 28.0396 21.9078 28.0496 21.8796L33.8934 1.34229C33.8973 1.32804 33.8978 1.31309 33.8951 1.29858C33.8923 1.28407 33.8863 1.27039 33.8774 1.25857C33.8685 1.24675 33.8571 1.23712 33.8439 1.2304C33.8308 1.22368 33.8163 1.22005 33.8015 1.2198V1.2198Z" fill="#2196F3"/>
<path d="M21.8028 12.1264L21.4608 13.3258L18.7508 22.7625L18.516 23.5842L18.2302 24.559L14.2544 13.7698L12.7947 9.79401V9.76849L12.4477 8.87534L12.2027 8.22207L12.1006 7.93626L11.5392 6.40515C11.5332 6.39722 11.5296 6.3877 11.5289 6.37777C11.5282 6.36783 11.5305 6.35791 11.5354 6.34923C11.5402 6.34055 11.5476 6.33348 11.5564 6.32891C11.5653 6.32434 11.5753 6.32245 11.5852 6.32349H19.3938C19.4134 6.32381 19.4325 6.32976 19.4488 6.34062C19.4651 6.35148 19.4779 6.36679 19.4857 6.38473L21.8028 12.1264Z" fill="#37A4ED"/>
<path d="M15.4131 20.1035L11.616 9.78382L11.3149 8.96722L10.7535 10.9168L10.1155 13.137L9.60512 14.9794L7.14514 23.5536L6.63477 25.4216L15.4591 21.9562C15.4738 21.9501 15.4868 21.9404 15.4966 21.9279C15.5064 21.9153 15.5129 21.9005 15.5152 21.8847L15.75 20.864L15.4131 20.1035Z" fill="#4EB1F4"/>
<path d="M8.97719 13.0808L9.24259 12.1519L8.52807 10.3605C8.52173 10.3426 8.50997 10.3271 8.49443 10.3161C8.47889 10.3051 8.46033 10.2993 8.4413 10.2993H0.0916346C0.0765231 10.3008 0.0619489 10.3057 0.048975 10.3136C0.0360011 10.3216 0.0249546 10.3322 0.0166412 10.345C0.00832784 10.3577 0.00295723 10.3721 0.000921072 10.3871C-0.00111508 10.4022 0.000234564 10.4175 0.00487158 10.432L5.65978 24.6203L5.9558 23.5996L8.72201 13.9791L8.97209 13.1114L8.97719 13.0808Z" fill="#6FC1EF"/>
</svg>
