<svg width="34" height="25" viewBox="0 0 34 25" fill="none" xmlns="http://www.w3.org/2000/svg">
<path d="M33.8015 0.219797H26.1204C26.0999 0.218993 26.0797 0.225092 26.063 0.237119C26.0464 0.249146 26.0342 0.266407 26.0286 0.286145L23.2981 9.94747L23.2266 10.1975L22.6856 12.1063L22.1753 13.9386L21.5118 16.2505L19.1641 24.4165L27.9935 20.946C28.0197 20.9315 28.0396 20.9078 28.0496 20.8796L33.8934 0.342286C33.8973 0.328037 33.8978 0.313088 33.8951 0.29858C33.8923 0.284071 33.8863 0.270387 33.8774 0.258571C33.8685 0.246754 33.8571 0.237119 33.8439 0.230399C33.8308 0.223679 33.8163 0.220053 33.8015 0.219797V0.219797Z" fill="#2196F3"/>
<path d="M21.8028 11.1264L21.4608 12.3258L18.7508 21.7625L18.516 22.5842L18.2302 23.559L14.2544 12.7698L12.7947 8.79401V8.76849L12.4477 7.87534L12.2027 7.22207L12.1006 6.93626L11.5392 5.40515C11.5332 5.39722 11.5296 5.3877 11.5289 5.37777C11.5282 5.36783 11.5305 5.35791 11.5354 5.34923C11.5402 5.34055 11.5476 5.33348 11.5564 5.32891C11.5653 5.32434 11.5753 5.32245 11.5852 5.32349H19.3938C19.4134 5.32381 19.4325 5.32976 19.4488 5.34062C19.4651 5.35148 19.4779 5.36679 19.4857 5.38473L21.8028 11.1264Z" fill="#37A4ED"/>
<path d="M15.4131 19.1035L11.616 8.78382L11.3149 7.96722L10.7535 9.91684L10.1155 12.137L9.60512 13.9794L7.14514 22.5536L6.63477 24.4216L15.4591 20.9562C15.4738 20.9501 15.4868 20.9404 15.4966 20.9279C15.5064 20.9153 15.5129 20.9005 15.5152 20.8847L15.75 19.864L15.4131 19.1035Z" fill="#4EB1F4"/>
<path d="M8.97719 12.0808L9.24259 11.1519L8.52807 9.36053C8.52173 9.34259 8.50997 9.32707 8.49443 9.3161C8.47889 9.30513 8.46033 9.29925 8.4413 9.29929H0.0916346C0.0765231 9.30084 0.0619489 9.30575 0.048975 9.31365C0.0360011 9.32155 0.0249546 9.33225 0.0166412 9.34496C0.00832784 9.35768 0.00295723 9.37209 0.000921072 9.38714C-0.00111508 9.4022 0.000234564 9.41752 0.00487158 9.43198L5.65978 23.6203L5.9558 22.5996L8.72201 12.9791L8.97209 12.1114L8.97719 12.0808Z" fill="#6FC1EF"/>
</svg>
