<svg width="30" height="31" viewBox="0 0 30 31" fill="none" xmlns="http://www.w3.org/2000/svg">
<g clip-path="url(#clip0_190_833)">
<path d="M16.9219 15.1963C16.9219 19.8557 13.1344 23.6338 8.46 23.6338C7.35049 23.6353 6.25156 23.4182 5.22595 22.995C4.20033 22.5718 3.26812 21.9507 2.48253 21.1672C1.69695 20.3837 1.07338 19.4531 0.647426 18.4286C0.221472 17.4042 0.00147639 16.3058 0 15.1963C0 10.535 3.7875 6.7588 8.46 6.7588C9.56966 6.75707 10.6688 6.97396 11.6946 7.39708C12.7205 7.82019 13.6529 8.44124 14.4387 9.22476C15.2245 10.0083 15.8482 10.9389 16.2743 11.9635C16.7003 12.9881 16.9204 14.0866 16.9219 15.1963ZM26.2031 15.1963C26.2031 19.5838 24.3094 23.1388 21.9731 23.1388C19.6369 23.1388 17.7431 19.5819 17.7431 15.1963C17.7431 10.8088 19.6369 7.2538 21.9731 7.2538C24.3094 7.2538 26.2031 10.8107 26.2031 15.1963ZM30 15.1963C30 19.1263 29.3344 22.3119 28.5113 22.3119C27.69 22.3119 27.0244 19.1244 27.0244 15.1963C27.0244 11.2663 27.69 8.08067 28.5131 8.08067C29.3344 8.08067 30 11.2663 30 15.1963Z" fill="white"/>
</g>
<defs>
<clipPath id="clip0_190_833">
<rect width="30" height="30" fill="white" transform="translate(0 0.196289)"/>
</clipPath>
</defs>
</svg>
