<svg width="30" height="31" viewBox="0 0 30 31" fill="none" xmlns="http://www.w3.org/2000/svg">
<path d="M27.0004 15.3464C27.0004 13.8464 25.8004 12.6464 24.3004 12.7964C23.7004 12.7964 22.9504 13.0964 22.5004 13.5464C20.4004 12.1964 18.0004 11.2964 15.4504 11.2964L16.6504 5.59639L20.5504 6.49639C20.5504 7.54639 21.4504 8.29639 22.5004 8.29639C23.5504 8.29639 24.3004 7.39639 24.3004 6.34639C24.3004 5.29639 23.4004 4.54639 22.3504 4.54639C21.6004 4.54639 21.0004 4.99639 20.7004 5.59639L16.5004 4.54639H16.2004C16.0504 4.54639 16.0504 4.69639 16.0504 4.84639L14.5504 11.2964C12.0004 11.2964 9.60039 12.0464 7.50039 13.5464C6.45039 12.4964 4.80039 12.4964 3.75039 13.5464C2.70039 14.5964 2.70039 16.2464 3.75039 17.2964C3.90039 17.4464 4.20039 17.7464 4.50039 17.7464V18.4964C4.50039 22.5464 9.15039 25.8464 15.0004 25.8464C20.8504 25.8464 25.5004 22.5464 25.5004 18.4964V17.7464C26.4004 17.2964 27.0004 16.3964 27.0004 15.3464ZM9.00039 17.2964C9.00039 16.2464 9.90039 15.4964 10.8004 15.4964C11.8504 15.4964 12.6004 16.3964 12.6004 17.2964C12.6004 18.1964 11.7004 19.0964 10.8004 19.0964C9.75039 19.0964 9.00039 18.3464 9.00039 17.2964ZM19.5004 22.2464C18.1504 23.1464 16.6504 23.7464 15.0004 23.5964C13.3504 23.5964 11.8504 23.1464 10.5004 22.2464C10.3504 22.0964 10.3504 21.7964 10.5004 21.4964C10.6504 21.3464 10.9504 21.3464 11.1004 21.4964C12.1504 22.2464 13.5004 22.6964 14.8504 22.5464C16.2004 22.6964 17.5504 22.2464 18.6004 21.4964C18.7504 21.3464 19.0504 21.3464 19.3504 21.4964C19.6504 21.6464 19.6504 21.9464 19.5004 22.2464ZM19.0504 19.0964C18.0004 19.0964 17.2504 18.1964 17.2504 17.2964C17.2504 16.3964 18.1504 15.4964 19.0504 15.4964C20.1004 15.4964 20.8504 16.3964 20.8504 17.2964C21.0004 18.3464 20.1004 19.0964 19.0504 19.0964Z" fill="white"/>
</svg>
