<svg width="28" height="22" viewBox="0 0 28 22" fill="none" xmlns="http://www.w3.org/2000/svg">
<g clip-path="url(#clip0_190_831)">
<path d="M23.7187 2.3627C21.8791 1.52047 19.937 0.922968 17.9421 0.585449C17.6691 1.07345 17.4221 1.57554 17.2021 2.08962C15.0771 1.76941 12.9162 1.76941 10.7912 2.08962C10.5711 1.5756 10.3241 1.07351 10.0513 0.585449C8.05507 0.925819 6.11171 1.52474 4.27023 2.36711C0.614419 7.77595 -0.376614 13.0505 0.118903 18.2501C2.25984 19.8319 4.65615 21.0349 7.20369 21.8068C7.77732 21.0353 8.28491 20.2168 8.72107 19.36C7.89264 19.0506 7.09306 18.6689 6.33158 18.2192C6.53199 18.0739 6.72799 17.9241 6.91739 17.7788C9.13312 18.8208 11.5515 19.3611 14 19.3611C16.4485 19.3611 18.8668 18.8208 21.0826 17.7788C21.2742 17.9351 21.4702 18.0849 21.6684 18.2192C20.9054 18.6696 20.1044 19.0521 19.2745 19.3622C19.7101 20.2186 20.2177 21.0364 20.7919 21.8068C23.3416 21.038 25.7397 19.8356 27.881 18.2523C28.4625 12.2224 26.8878 6.99634 23.7187 2.3627ZM9.34873 15.0523C7.96789 15.0523 6.8271 13.7992 6.8271 12.2576C6.8271 10.716 7.92825 9.4519 9.34432 9.4519C10.7604 9.4519 11.8924 10.716 11.8682 12.2576C11.8439 13.7992 10.756 15.0523 9.34873 15.0523ZM18.6512 15.0523C17.2682 15.0523 16.1318 13.7992 16.1318 12.2576C16.1318 10.716 17.2329 9.4519 18.6512 9.4519C20.0695 9.4519 21.1927 10.716 21.1685 12.2576C21.1442 13.7992 20.0585 15.0523 18.6512 15.0523Z" fill="white"/>
</g>
<defs>
<clipPath id="clip0_190_831">
<rect width="28" height="21.2213" fill="white" transform="translate(0 0.585449)"/>
</clipPath>
</defs>
</svg>
