<svg width="30" height="31" viewBox="0 0 30 31" fill="none" xmlns="http://www.w3.org/2000/svg">
<path d="M27.5716 8.87754C27.4222 8.32258 27.1297 7.81658 26.7233 7.4102C26.3169 7.00381 25.8109 6.71129 25.256 6.56191C23.2122 6.00879 14.9997 6.00879 14.9997 6.00879C14.9997 6.00879 6.78723 6.00879 4.74348 6.56191C4.18852 6.71129 3.68252 7.00381 3.27614 7.4102C2.86975 7.81658 2.57723 8.32258 2.42785 8.87754C2.04624 10.9619 1.86105 13.0774 1.87473 15.1963C1.86105 17.3152 2.04624 19.4307 2.42785 21.515C2.57723 22.07 2.86975 22.576 3.27614 22.9824C3.68252 23.3888 4.18852 23.6813 4.74348 23.8307C6.78723 24.3838 14.9997 24.3838 14.9997 24.3838C14.9997 24.3838 23.2122 24.3838 25.256 23.8307C25.8109 23.6813 26.3169 23.3888 26.7233 22.9824C27.1297 22.576 27.4222 22.07 27.5716 21.515C27.9532 19.4307 28.1384 17.3152 28.1247 15.1963C28.1384 13.0774 27.9532 10.9619 27.5716 8.87754ZM12.3747 19.1338V11.2588L19.1904 15.1963L12.3747 19.1338Z" fill="white"/>
</svg>
