<svg width="39" height="40" viewBox="0 0 39 40" fill="none" xmlns="http://www.w3.org/2000/svg">
<g clip-path="url(#clip0_157_2262)">
<path d="M19.2859 0.956055C29.8952 0.956055 38.4947 9.55559 38.4947 20.1648C38.4947 30.7741 29.8952 39.3736 19.2859 39.3736C8.67668 39.3736 0.0771484 30.7741 0.0771484 20.1648C0.0771484 9.55559 8.67668 0.956055 19.2859 0.956055ZM23.3102 7.63111C23.0172 7.48704 22.7243 7.63111 22.6523 7.92284C22.579 7.99608 22.579 8.06931 22.579 8.21458V9.23504L22.5911 9.3599C22.6537 9.60689 22.8055 9.82197 23.0172 9.96378C28.7247 12.0047 31.6516 18.3436 29.529 23.9538C28.4317 27.0152 26.0174 29.3454 23.0172 30.4391C22.7243 30.5844 22.579 30.8029 22.579 31.1679V32.1883L22.585 32.294C22.5965 32.4093 22.6446 32.5178 22.7225 32.6037C22.8003 32.6895 22.9036 32.748 23.0172 32.7706C23.0905 32.7706 23.2369 32.7706 23.3102 32.6986C24.9568 32.1844 26.4855 31.3495 27.8081 30.2421C29.1308 29.1346 30.2213 27.7765 31.0169 26.2458C31.8125 24.7152 32.2975 23.0423 32.444 21.3235C32.5904 19.6046 32.3953 17.8738 31.8701 16.2306C30.5543 12.0767 27.3344 8.94331 23.3102 7.63231V7.63111ZM15.5546 7.55908C15.4814 7.55908 15.3349 7.55908 15.2617 7.63111C13.6151 8.14533 12.0864 8.9802 10.7637 10.0876C9.44109 11.1951 8.35056 12.5532 7.55494 14.0839C6.75933 15.6145 6.27435 17.2874 6.12793 19.0062C5.98151 20.7251 6.17653 22.4559 6.70178 24.099C8.01758 28.1809 11.1642 31.3143 15.2617 32.6253C15.5546 32.7706 15.8476 32.6253 15.9196 32.3336C15.9928 32.2616 15.9928 32.1871 15.9928 32.0419V31.0214L15.9808 30.9254C15.9304 30.7225 15.7419 30.4908 15.5546 30.3659C9.84722 28.325 6.92028 21.9861 9.04285 16.3759C10.1402 13.3145 12.5545 10.9842 15.5546 9.89054C15.8476 9.74528 15.9928 9.52678 15.9928 9.16181V8.14134L15.9868 8.03569C15.9754 7.92041 15.9272 7.81185 15.8494 7.72603C15.7716 7.64021 15.6683 7.58168 15.5546 7.55908ZM19.7986 11.348H18.7001L18.5944 11.3576C18.3543 11.4056 18.179 11.6121 18.1142 11.9315V13.6074L17.8657 13.6459C15.8152 14.0108 14.5306 15.4263 14.5306 17.1779C14.5306 19.5814 15.9928 20.5286 19.0662 20.8936C21.1156 21.2573 21.7735 21.6955 21.7735 22.8613C21.7735 24.0258 20.7494 24.8278 19.3592 24.8278C17.4563 24.8278 16.7984 24.027 16.5787 22.9333C16.5067 22.6428 16.2858 22.4963 16.0661 22.4963H14.8223L14.7275 22.5047C14.6091 22.5238 14.5016 22.5852 14.425 22.6775C14.3484 22.7698 14.3079 22.8867 14.3109 23.0065V23.0786L14.3505 23.2947C14.6986 25.0043 15.8704 26.2276 18.1886 26.577V28.3262L18.1982 28.4318C18.2463 28.6695 18.454 28.8448 18.7745 28.9084H19.8718L19.9775 28.8988C20.2176 28.8508 20.3928 28.6443 20.4577 28.3262V26.5758L20.7062 26.5278C22.7627 26.0932 24.1158 24.6057 24.1158 22.7136C24.1158 20.1636 22.579 19.2896 19.5056 18.9247C17.3098 18.6329 16.8716 18.0507 16.8716 17.0302C16.8716 16.0097 17.604 15.3542 19.0662 15.3542C20.3832 15.3542 21.1156 15.7912 21.4805 16.8849C21.5186 16.9907 21.5881 17.0823 21.6798 17.1473C21.7714 17.2123 21.8808 17.2477 21.9932 17.2487H23.1637L23.2586 17.2415C23.3774 17.2226 23.4853 17.1612 23.5621 17.0686C23.639 16.9761 23.6796 16.8587 23.6763 16.7385V16.6664L23.6319 16.4588C23.4517 15.7125 23.0407 15.0421 22.4574 14.5429C21.8742 14.0437 21.1484 13.7412 20.3832 13.6783V11.9315L20.3736 11.8258C20.3256 11.5869 20.1179 11.4116 19.7974 11.348H19.7986Z" fill="#A1EB91"/>
</g>
<defs>
<clipPath id="clip0_157_2262">
<rect width="38.4176" height="38.4176" fill="white" transform="translate(0.0771484 0.956055)"/>
</clipPath>
</defs>
</svg>
