<svg width="45" height="39" viewBox="0 0 45 39" fill="none" xmlns="http://www.w3.org/2000/svg">
<path d="M22.6659 0.844697C20.1779 0.775328 17.7012 1.20549 15.3824 2.10974C13.0635 3.014 10.9494 4.374 9.16521 6.10934C7.38098 7.84467 5.96278 9.92012 4.99446 12.213C4.02614 14.5059 3.52735 16.9696 3.52758 19.4585C3.52758 19.9335 3.54592 20.4047 3.58259 20.876C3.63285 21.5423 3.48487 22.2087 3.15728 22.7911C2.82968 23.3735 2.33711 23.846 1.74156 24.1491L0.142578 24.9651V28.7682L4.85151 26.3679L6.37714 25.5904L7.88077 24.8258L34.8544 11.0804L37.8855 9.53641L44.1513 6.34395V2.54087L37.9405 5.70949L32.6412 8.41052L7.05194 21.4444C6.96603 20.7841 6.92316 20.1189 6.92358 19.453C6.92711 16.7975 7.62432 14.1889 8.94617 11.8856C10.268 9.58243 12.1686 7.66448 14.4597 6.32179C16.7509 4.97909 19.353 4.25822 22.0085 4.23059C24.6639 4.20296 27.2805 4.86952 29.5991 6.16425L32.632 4.61844L33.0849 4.3874C30.0482 2.18367 26.4165 0.948821 22.6659 0.844697ZM44.1513 10.1489L9.41191 27.8367L6.38081 29.3843L0.142578 32.5658V36.3652L6.3368 33.2076L11.6362 30.5066L37.2529 17.4561C37.3388 18.1201 37.3817 18.789 37.3813 19.4585C37.3796 22.1171 36.6826 24.7291 35.3594 27.035C34.0363 29.341 32.1331 31.2609 29.8387 32.604C27.5443 33.9471 24.9386 34.6668 22.2801 34.6916C19.6216 34.7164 17.0028 34.0455 14.6838 32.7455L14.4986 32.8445L11.2108 34.5205C13.9887 36.537 17.27 37.7464 20.6921 38.0149C24.1143 38.2835 27.5441 37.6008 30.6025 36.0422C33.661 34.4837 36.2291 32.11 38.023 29.1834C39.817 26.2568 40.767 22.8912 40.7681 19.4585C40.7681 18.9818 40.7498 18.5013 40.7131 18.0283C40.6629 17.3621 40.8107 16.6961 41.1379 16.1137C41.4652 15.5313 41.9572 15.0587 42.5523 14.7551L44.1513 13.9391V10.1489Z" fill="#A1EB91"/>
</svg>
